<svg width="22" height="22" viewBox="0 0 22 22" fill="none" xmlns="http://www.w3.org/2000/svg">
<g id="shopping-cart" clip-path="url(#clip0_4_301)">
<path id="Vector" d="M8.25004 20.1666C8.7563 20.1666 9.16671 19.7562 9.16671 19.2499C9.16671 18.7437 8.7563 18.3333 8.25004 18.3333C7.74378 18.3333 7.33337 18.7437 7.33337 19.2499C7.33337 19.7562 7.74378 20.1666 8.25004 20.1666Z" stroke="#2C2D35" stroke-width="2" stroke-linecap="round" stroke-linejoin="round"/>
<path id="Vector_2" d="M18.3333 20.1666C18.8396 20.1666 19.25 19.7562 19.25 19.2499C19.25 18.7437 18.8396 18.3333 18.3333 18.3333C17.827 18.3333 17.4166 18.7437 17.4166 19.2499C17.4166 19.7562 17.827 20.1666 18.3333 20.1666Z" stroke="#2C2D35" stroke-width="2" stroke-linecap="round" stroke-linejoin="round"/>
<path id="Vector_3" d="M0.916626 0.916748H4.58329L7.03996 13.1909C7.12378 13.6129 7.35337 13.992 7.68854 14.2619C8.02371 14.5317 8.4431 14.675 8.87329 14.6667H17.7833C18.2135 14.675 18.6329 14.5317 18.968 14.2619C19.3032 13.992 19.5328 13.6129 19.6166 13.1909L21.0833 5.50008H5.49996" stroke="#2C2D35" stroke-width="2" stroke-linecap="round" stroke-linejoin="round"/>
</g>
<defs>
<clipPath id="clip0_4_301">
<rect width="22" height="22" fill="white"/>
</clipPath>
</defs>
</svg>
